<svg version="1.1" id="Layer_3" xmlns="http://www.w3.org/2000/svg" x="0" y="0" viewBox="0 0 64 64" style="enable-background:new 0 0 64 64" xml:space="preserve"><style>.st1{fill:#63312d}.st6{fill:#84dbff}</style><path class="st6" d="M25.125 28.125H6.083a3 3 0 0 1-3-3V6.083a3 3 0 0 1 3-3h19.042a3 3 0 0 1 3 3v19.042a3 3 0 0 1-3 3zM57.917 28.125H38.875a3 3 0 0 1-3-3V6.083a3 3 0 0 1 3-3h19.042a3 3 0 0 1 3 3v19.042a3 3 0 0 1-3 3zM25.125 60.917H6.083a3 3 0 0 1-3-3V38.875a3 3 0 0 1 3-3h19.042a3 3 0 0 1 3 3v19.042a3 3 0 0 1-3 3zM57.917 60.917H38.875a3 3 0 0 1-3-3V38.875a3 3 0 0 1 3-3h19.042a3 3 0 0 1 3 3v19.042a3 3 0 0 1-3 3z"/><path class="st1" d="M25.125 28.625H6.083c-1.93 0-3.5-1.57-3.5-3.5V6.083c0-1.93 1.57-3.5 3.5-3.5h19.042c1.93 0 3.5 1.57 3.5 3.5v19.042c0 1.93-1.57 3.5-3.5 3.5zM6.083 3.583a2.502 2.502 0 0 0-2.5 2.5v19.042c0 1.379 1.121 2.5 2.5 2.5h19.042c1.379 0 2.5-1.121 2.5-2.5V6.083c0-1.379-1.121-2.5-2.5-2.5H6.083zM57.917 28.625H38.875c-1.93 0-3.5-1.57-3.5-3.5V6.083c0-1.93 1.57-3.5 3.5-3.5h19.042c1.93 0 3.5 1.57 3.5 3.5v19.042c0 1.93-1.57 3.5-3.5 3.5zM38.875 3.583a2.502 2.502 0 0 0-2.5 2.5v19.042c0 1.379 1.121 2.5 2.5 2.5h19.042c1.379 0 2.5-1.121 2.5-2.5V6.083c0-1.379-1.121-2.5-2.5-2.5H38.875zM25.125 61.417H6.083c-1.93 0-3.5-1.57-3.5-3.5V38.875c0-1.93 1.57-3.5 3.5-3.5h19.042c1.93 0 3.5 1.57 3.5 3.5v19.042c0 1.93-1.57 3.5-3.5 3.5zM6.083 36.375a2.502 2.502 0 0 0-2.5 2.5v19.042c0 1.379 1.121 2.5 2.5 2.5h19.042c1.379 0 2.5-1.121 2.5-2.5V38.875c0-1.379-1.121-2.5-2.5-2.5H6.083zM57.917 61.417H38.875c-1.93 0-3.5-1.57-3.5-3.5V38.875c0-1.93 1.57-3.5 3.5-3.5h19.042c1.93 0 3.5 1.57 3.5 3.5v19.042c0 1.93-1.57 3.5-3.5 3.5zM38.875 36.375a2.502 2.502 0 0 0-2.5 2.5v19.042c0 1.379 1.121 2.5 2.5 2.5h19.042c1.379 0 2.5-1.121 2.5-2.5V38.875c0-1.379-1.121-2.5-2.5-2.5H38.875z"/><path d="M43.667 48.833H16a3 3 0 0 1-3-3V18.167a3 3 0 0 1 3-3h27.667a3 3 0 0 1 3 3v27.667a3 3 0 0 1-3 2.999z" style="fill:#f9dd9d"/><path d="M14.729 47.417V18.75a2 2 0 0 1 2-2h28.667c.352 0 .686.072 1 .184a2.996 2.996 0 0 0-2.729-1.767H16a3 3 0 0 0-3 3v27.667a2.99 2.99 0 0 0 2 2.816 2.992 2.992 0 0 1-.271-1.233z" style="fill:#ffe8bb"/><path class="st1" d="M43.667 49.333H16c-1.93 0-3.5-1.57-3.5-3.5V18.167c0-1.93 1.57-3.5 3.5-3.5h27.667c1.93 0 3.5 1.57 3.5 3.5v27.666c0 1.93-1.57 3.5-3.5 3.5zM16 15.667a2.502 2.502 0 0 0-2.5 2.5v27.666c0 1.379 1.121 2.5 2.5 2.5h27.667c1.379 0 2.5-1.121 2.5-2.5V18.167c0-1.379-1.121-2.5-2.5-2.5H16z"/><path d="M48 15.167h-4.333a3 3 0 0 1 3 3v27.667a3 3 0 0 1-3 3H48a3 3 0 0 0 3-3V18.167a3 3 0 0 0-3-3z" style="fill:#efc36a"/><path class="st1" d="M48 49.333h-4.333a.5.5 0 0 1 0-1c1.379 0 2.5-1.121 2.5-2.5V18.167c0-1.379-1.121-2.5-2.5-2.5a.5.5 0 0 1 0-1H48c1.93 0 3.5 1.57 3.5 3.5v27.666c0 1.93-1.57 3.5-3.5 3.5zm-1.886-1H48c1.379 0 2.5-1.121 2.5-2.5V18.167c0-1.379-1.121-2.5-2.5-2.5h-1.886a3.49 3.49 0 0 1 1.053 2.5v27.666c0 .979-.403 1.864-1.053 2.5zM38.521 36.417h-1V24.833H22.479v7.421h-1v-7.921a.5.5 0 0 1 .5-.5h16.043a.5.5 0 0 1 .5.5v12.084z"/><path class="st1" d="M35.292 40.417H24.708a.5.5 0 0 1-.5-.5v-7.604h1v7.104h9.584v-3h1v3.5a.5.5 0 0 1-.5.5z"/><path class="st1" d="M33.25 36.114h-1V27.75h-4.333v4.563h-1V27.25a.5.5 0 0 1 .5-.5h5.333a.5.5 0 0 1 .5.5v8.864z"/></svg>